<mxfile host="app.diagrams.net" modified="2021-05-26T07:52:25.330Z" agent="5.0 (Macintosh; Intel Mac OS X 10_14_6) AppleWebKit/605.1.15 (KHTML, like Gecko) Version/14.0.3 Safari/605.1.15" etag="aFAdzjy3of8Lxc_ugJ6t" version="14.6.12" type="github">
  <diagram id="fKOuoRNuhxXaLsH1ETYs" name="Page-1">
    <mxGraphModel dx="735" dy="608" grid="1" gridSize="10" guides="1" tooltips="1" connect="1" arrows="1" fold="1" page="1" pageScale="1" pageWidth="850" pageHeight="1100" math="0" shadow="0">
      <root>
        <mxCell id="0" />
        <mxCell id="1" parent="0" />
        <mxCell id="Vip5gLb5V1CLxU_kUaMi-1" value="" style="group;fontSize=12;" parent="1" vertex="1" connectable="0">
          <mxGeometry x="95" y="163" width="555" height="610" as="geometry" />
        </mxCell>
        <mxCell id="VEnAIz456IoGPyVfWT1b-36" value="" style="rounded=1;whiteSpace=wrap;html=1;" parent="Vip5gLb5V1CLxU_kUaMi-1" vertex="1">
          <mxGeometry y="39.328947368421055" width="359.4117647058824" height="144.47368421052633" as="geometry" />
        </mxCell>
        <mxCell id="VEnAIz456IoGPyVfWT1b-27" value="" style="rounded=1;whiteSpace=wrap;html=1;fillColor=#f5f5f5;strokeColor=#666666;fontColor=#333333;" parent="Vip5gLb5V1CLxU_kUaMi-1" vertex="1">
          <mxGeometry x="76.47058823529412" width="198.8235294117647" height="296.97368421052636" as="geometry" />
        </mxCell>
        <mxCell id="VEnAIz456IoGPyVfWT1b-1" value="" style="rounded=0;whiteSpace=wrap;html=1;rotation=90;" parent="Vip5gLb5V1CLxU_kUaMi-1" vertex="1">
          <mxGeometry x="130" y="96.31578947368422" width="91.76470588235294" height="32.10526315789474" as="geometry" />
        </mxCell>
        <mxCell id="VEnAIz456IoGPyVfWT1b-5" style="edgeStyle=orthogonalEdgeStyle;rounded=0;orthogonalLoop=1;jettySize=auto;html=1;exitX=0.5;exitY=0;exitDx=0;exitDy=0;entryX=0.5;entryY=1;entryDx=0;entryDy=0;" parent="Vip5gLb5V1CLxU_kUaMi-1" source="VEnAIz456IoGPyVfWT1b-2" target="VEnAIz456IoGPyVfWT1b-1" edge="1">
          <mxGeometry relative="1" as="geometry" />
        </mxCell>
        <mxCell id="VEnAIz456IoGPyVfWT1b-2" value="" style="rounded=0;whiteSpace=wrap;html=1;rotation=90;" parent="Vip5gLb5V1CLxU_kUaMi-1" vertex="1">
          <mxGeometry x="68.82352941176471" y="96.31578947368422" width="91.76470588235294" height="32.10526315789474" as="geometry" />
        </mxCell>
        <mxCell id="VEnAIz456IoGPyVfWT1b-3" value="" style="rounded=0;whiteSpace=wrap;html=1;rotation=90;" parent="Vip5gLb5V1CLxU_kUaMi-1" vertex="1">
          <mxGeometry x="191.1764705882353" y="96.31578947368422" width="91.76470588235294" height="32.10526315789474" as="geometry" />
        </mxCell>
        <mxCell id="VEnAIz456IoGPyVfWT1b-6" style="edgeStyle=orthogonalEdgeStyle;rounded=0;orthogonalLoop=1;jettySize=auto;html=1;exitX=0.5;exitY=0;exitDx=0;exitDy=0;entryX=0.5;entryY=1;entryDx=0;entryDy=0;" parent="Vip5gLb5V1CLxU_kUaMi-1" source="VEnAIz456IoGPyVfWT1b-1" target="VEnAIz456IoGPyVfWT1b-3" edge="1">
          <mxGeometry relative="1" as="geometry" />
        </mxCell>
        <mxCell id="VEnAIz456IoGPyVfWT1b-4" value="" style="rounded=0;whiteSpace=wrap;html=1;rotation=90;" parent="Vip5gLb5V1CLxU_kUaMi-1" vertex="1">
          <mxGeometry x="130" y="204.67105263157896" width="91.76470588235294" height="32.10526315789474" as="geometry" />
        </mxCell>
        <mxCell id="VEnAIz456IoGPyVfWT1b-7" value="" style="ellipse;whiteSpace=wrap;html=1;aspect=fixed;" parent="Vip5gLb5V1CLxU_kUaMi-1" vertex="1">
          <mxGeometry x="104.76470588235294" y="68.61842105263159" width="20.647058823529413" height="20.647058823529413" as="geometry" />
        </mxCell>
        <mxCell id="VEnAIz456IoGPyVfWT1b-9" value="" style="ellipse;whiteSpace=wrap;html=1;aspect=fixed;" parent="Vip5gLb5V1CLxU_kUaMi-1" vertex="1">
          <mxGeometry x="104.76470588235294" y="93.10526315789475" width="20.647058823529413" height="20.647058823529413" as="geometry" />
        </mxCell>
        <mxCell id="VEnAIz456IoGPyVfWT1b-10" value="" style="ellipse;whiteSpace=wrap;html=1;aspect=fixed;" parent="Vip5gLb5V1CLxU_kUaMi-1" vertex="1">
          <mxGeometry x="104.38235294117648" y="135.44736842105263" width="20.647058823529413" height="20.647058823529413" as="geometry" />
        </mxCell>
        <mxCell id="VEnAIz456IoGPyVfWT1b-11" value="" style="ellipse;whiteSpace=wrap;html=1;aspect=fixed;" parent="Vip5gLb5V1CLxU_kUaMi-1" vertex="1">
          <mxGeometry x="165.55882352941177" y="68.61842105263159" width="20.647058823529413" height="20.647058823529413" as="geometry" />
        </mxCell>
        <mxCell id="VEnAIz456IoGPyVfWT1b-12" value="" style="ellipse;whiteSpace=wrap;html=1;aspect=fixed;" parent="Vip5gLb5V1CLxU_kUaMi-1" vertex="1">
          <mxGeometry x="165.55882352941177" y="93.10526315789475" width="20.647058823529413" height="20.647058823529413" as="geometry" />
        </mxCell>
        <mxCell id="VEnAIz456IoGPyVfWT1b-13" value="" style="ellipse;whiteSpace=wrap;html=1;aspect=fixed;" parent="Vip5gLb5V1CLxU_kUaMi-1" vertex="1">
          <mxGeometry x="165.55882352941177" y="135.44736842105263" width="20.647058823529413" height="20.647058823529413" as="geometry" />
        </mxCell>
        <mxCell id="VEnAIz456IoGPyVfWT1b-26" style="edgeStyle=orthogonalEdgeStyle;rounded=0;orthogonalLoop=1;jettySize=auto;html=1;exitX=0;exitY=0.5;exitDx=0;exitDy=0;entryX=0;entryY=0.5;entryDx=0;entryDy=0;dashed=1;dashPattern=1 1;" parent="Vip5gLb5V1CLxU_kUaMi-1" source="VEnAIz456IoGPyVfWT1b-15" target="VEnAIz456IoGPyVfWT1b-11" edge="1">
          <mxGeometry relative="1" as="geometry" />
        </mxCell>
        <mxCell id="VEnAIz456IoGPyVfWT1b-15" value="" style="ellipse;whiteSpace=wrap;html=1;aspect=fixed;" parent="Vip5gLb5V1CLxU_kUaMi-1" vertex="1">
          <mxGeometry x="165.55882352941177" y="176.97368421052633" width="20.647058823529413" height="20.647058823529413" as="geometry" />
        </mxCell>
        <mxCell id="VEnAIz456IoGPyVfWT1b-21" style="edgeStyle=orthogonalEdgeStyle;rounded=0;orthogonalLoop=1;jettySize=auto;html=1;exitX=1;exitY=0.5;exitDx=0;exitDy=0;entryX=1;entryY=0.5;entryDx=0;entryDy=0;dashed=1;dashPattern=1 1;" parent="Vip5gLb5V1CLxU_kUaMi-1" source="VEnAIz456IoGPyVfWT1b-11" target="VEnAIz456IoGPyVfWT1b-15" edge="1">
          <mxGeometry relative="1" as="geometry" />
        </mxCell>
        <mxCell id="VEnAIz456IoGPyVfWT1b-25" style="edgeStyle=orthogonalEdgeStyle;rounded=0;orthogonalLoop=1;jettySize=auto;html=1;exitX=0;exitY=0.5;exitDx=0;exitDy=0;entryX=0;entryY=0.5;entryDx=0;entryDy=0;dashed=1;dashPattern=1 1;" parent="Vip5gLb5V1CLxU_kUaMi-1" source="VEnAIz456IoGPyVfWT1b-16" target="VEnAIz456IoGPyVfWT1b-12" edge="1">
          <mxGeometry relative="1" as="geometry">
            <Array as="points">
              <mxPoint x="145.29411764705884" y="212.69736842105266" />
              <mxPoint x="145.29411764705884" y="104.3421052631579" />
            </Array>
          </mxGeometry>
        </mxCell>
        <mxCell id="VEnAIz456IoGPyVfWT1b-16" value="" style="ellipse;whiteSpace=wrap;html=1;aspect=fixed;" parent="Vip5gLb5V1CLxU_kUaMi-1" vertex="1">
          <mxGeometry x="165.55882352941177" y="201.4605263157895" width="20.647058823529413" height="20.647058823529413" as="geometry" />
        </mxCell>
        <mxCell id="VEnAIz456IoGPyVfWT1b-22" style="edgeStyle=orthogonalEdgeStyle;rounded=0;orthogonalLoop=1;jettySize=auto;html=1;exitX=1;exitY=0.5;exitDx=0;exitDy=0;entryX=1;entryY=0.5;entryDx=0;entryDy=0;dashed=1;dashPattern=1 1;" parent="Vip5gLb5V1CLxU_kUaMi-1" source="VEnAIz456IoGPyVfWT1b-12" target="VEnAIz456IoGPyVfWT1b-16" edge="1">
          <mxGeometry relative="1" as="geometry">
            <Array as="points">
              <mxPoint x="206.47058823529412" y="104.3421052631579" />
              <mxPoint x="206.47058823529412" y="212.69736842105266" />
            </Array>
          </mxGeometry>
        </mxCell>
        <mxCell id="VEnAIz456IoGPyVfWT1b-24" style="edgeStyle=orthogonalEdgeStyle;rounded=0;orthogonalLoop=1;jettySize=auto;html=1;exitX=0;exitY=0.5;exitDx=0;exitDy=0;entryX=0;entryY=0.5;entryDx=0;entryDy=0;dashed=1;dashPattern=1 1;" parent="Vip5gLb5V1CLxU_kUaMi-1" source="VEnAIz456IoGPyVfWT1b-17" target="VEnAIz456IoGPyVfWT1b-13" edge="1">
          <mxGeometry relative="1" as="geometry">
            <Array as="points">
              <mxPoint x="137.64705882352942" y="256.0394736842106" />
              <mxPoint x="137.64705882352942" y="147.6842105263158" />
            </Array>
          </mxGeometry>
        </mxCell>
        <mxCell id="VEnAIz456IoGPyVfWT1b-17" value="" style="ellipse;whiteSpace=wrap;html=1;aspect=fixed;" parent="Vip5gLb5V1CLxU_kUaMi-1" vertex="1">
          <mxGeometry x="165.55882352941177" y="243.8026315789474" width="20.647058823529413" height="20.647058823529413" as="geometry" />
        </mxCell>
        <mxCell id="VEnAIz456IoGPyVfWT1b-23" style="edgeStyle=orthogonalEdgeStyle;rounded=0;orthogonalLoop=1;jettySize=auto;html=1;exitX=1;exitY=0.5;exitDx=0;exitDy=0;entryX=1;entryY=0.5;entryDx=0;entryDy=0;dashed=1;dashPattern=1 1;" parent="Vip5gLb5V1CLxU_kUaMi-1" source="VEnAIz456IoGPyVfWT1b-13" target="VEnAIz456IoGPyVfWT1b-17" edge="1">
          <mxGeometry relative="1" as="geometry">
            <Array as="points">
              <mxPoint x="214.11764705882354" y="147.6842105263158" />
              <mxPoint x="214.11764705882354" y="256.0394736842106" />
            </Array>
          </mxGeometry>
        </mxCell>
        <mxCell id="VEnAIz456IoGPyVfWT1b-18" value="" style="ellipse;whiteSpace=wrap;html=1;aspect=fixed;" parent="Vip5gLb5V1CLxU_kUaMi-1" vertex="1">
          <mxGeometry x="226.73529411764707" y="68.61842105263159" width="20.647058823529413" height="20.647058823529413" as="geometry" />
        </mxCell>
        <mxCell id="VEnAIz456IoGPyVfWT1b-19" value="" style="ellipse;whiteSpace=wrap;html=1;aspect=fixed;" parent="Vip5gLb5V1CLxU_kUaMi-1" vertex="1">
          <mxGeometry x="226.73529411764707" y="93.10526315789475" width="20.647058823529413" height="20.647058823529413" as="geometry" />
        </mxCell>
        <mxCell id="VEnAIz456IoGPyVfWT1b-20" value="" style="ellipse;whiteSpace=wrap;html=1;aspect=fixed;" parent="Vip5gLb5V1CLxU_kUaMi-1" vertex="1">
          <mxGeometry x="226.73529411764707" y="135.44736842105263" width="20.647058823529413" height="20.647058823529413" as="geometry" />
        </mxCell>
        <mxCell id="VEnAIz456IoGPyVfWT1b-28" value="Context&lt;br style=&quot;font-size: 10px;&quot;&gt;Units" style="text;html=1;strokeColor=none;fillColor=none;align=center;verticalAlign=middle;whiteSpace=wrap;rounded=0;fontSize=10;" parent="Vip5gLb5V1CLxU_kUaMi-1" vertex="1">
          <mxGeometry x="160.58823529411765" y="272.89473684210526" width="30.58823529411765" height="16.05263157894737" as="geometry" />
        </mxCell>
        <mxCell id="VEnAIz456IoGPyVfWT1b-29" value="Hidden&lt;br style=&quot;font-size: 10px;&quot;&gt;Layer" style="text;html=1;strokeColor=none;fillColor=none;align=center;verticalAlign=middle;whiteSpace=wrap;rounded=0;fontSize=10;" parent="Vip5gLb5V1CLxU_kUaMi-1" vertex="1">
          <mxGeometry x="160.58823529411765" y="44.14473684210527" width="30.58823529411765" height="16.05263157894737" as="geometry" />
        </mxCell>
        <mxCell id="VEnAIz456IoGPyVfWT1b-30" value="Input&lt;br style=&quot;font-size: 10px;&quot;&gt;Layer" style="text;html=1;strokeColor=none;fillColor=none;align=center;verticalAlign=middle;whiteSpace=wrap;rounded=0;fontSize=10;" parent="Vip5gLb5V1CLxU_kUaMi-1" vertex="1">
          <mxGeometry x="99.41176470588235" y="44.14473684210527" width="30.58823529411765" height="16.05263157894737" as="geometry" />
        </mxCell>
        <mxCell id="VEnAIz456IoGPyVfWT1b-31" value="Output&lt;br style=&quot;font-size: 10px;&quot;&gt;Layer" style="text;html=1;strokeColor=none;fillColor=none;align=center;verticalAlign=middle;whiteSpace=wrap;rounded=0;fontSize=10;" parent="Vip5gLb5V1CLxU_kUaMi-1" vertex="1">
          <mxGeometry x="221.76470588235296" y="44.14473684210527" width="30.58823529411765" height="16.05263157894737" as="geometry" />
        </mxCell>
        <mxCell id="VEnAIz456IoGPyVfWT1b-32" value="Elman RNN (Activation: Tanh)" style="text;html=1;strokeColor=none;fillColor=none;align=center;verticalAlign=middle;whiteSpace=wrap;rounded=0;fontSize=10;" parent="Vip5gLb5V1CLxU_kUaMi-1" vertex="1">
          <mxGeometry x="130" y="8.026315789473685" width="91.76470588235294" height="16.05263157894737" as="geometry" />
        </mxCell>
        <mxCell id="wHTYpB7IPGeu_RWElvGa-4" style="edgeStyle=orthogonalEdgeStyle;rounded=0;orthogonalLoop=1;jettySize=auto;html=1;exitX=0.5;exitY=0;exitDx=0;exitDy=0;entryX=0;entryY=0.5;entryDx=0;entryDy=0;" edge="1" parent="Vip5gLb5V1CLxU_kUaMi-1" source="VEnAIz456IoGPyVfWT1b-33" target="wHTYpB7IPGeu_RWElvGa-2">
          <mxGeometry relative="1" as="geometry" />
        </mxCell>
        <mxCell id="VEnAIz456IoGPyVfWT1b-33" value="" style="rounded=0;whiteSpace=wrap;html=1;rotation=90;fillColor=#dae8fc;strokeColor=#6c8ebf;" parent="Vip5gLb5V1CLxU_kUaMi-1" vertex="1">
          <mxGeometry x="282.94117647058823" y="97.11842105263159" width="91.76470588235294" height="30.5" as="geometry" />
        </mxCell>
        <mxCell id="VEnAIz456IoGPyVfWT1b-39" style="edgeStyle=orthogonalEdgeStyle;rounded=0;orthogonalLoop=1;jettySize=auto;html=1;exitX=0.5;exitY=0;exitDx=0;exitDy=0;entryX=0.5;entryY=1;entryDx=0;entryDy=0;" parent="Vip5gLb5V1CLxU_kUaMi-1" source="VEnAIz456IoGPyVfWT1b-3" target="VEnAIz456IoGPyVfWT1b-33" edge="1">
          <mxGeometry relative="1" as="geometry" />
        </mxCell>
        <mxCell id="VEnAIz456IoGPyVfWT1b-96" style="edgeStyle=orthogonalEdgeStyle;rounded=0;orthogonalLoop=1;jettySize=auto;html=1;exitX=1;exitY=0.5;exitDx=0;exitDy=0;entryX=0.5;entryY=1;entryDx=0;entryDy=0;" parent="Vip5gLb5V1CLxU_kUaMi-1" source="VEnAIz456IoGPyVfWT1b-34" target="VEnAIz456IoGPyVfWT1b-2" edge="1">
          <mxGeometry relative="1" as="geometry" />
        </mxCell>
        <mxCell id="VEnAIz456IoGPyVfWT1b-97" value="flatten" style="edgeLabel;html=1;align=center;verticalAlign=middle;resizable=0;points=[];fontSize=10;" parent="VEnAIz456IoGPyVfWT1b-96" vertex="1" connectable="0">
          <mxGeometry x="-0.343" y="-3" relative="1" as="geometry">
            <mxPoint y="-11" as="offset" />
          </mxGeometry>
        </mxCell>
        <mxCell id="VEnAIz456IoGPyVfWT1b-34" value="14x14" style="whiteSpace=wrap;html=1;aspect=fixed;fontSize=10;" parent="Vip5gLb5V1CLxU_kUaMi-1" vertex="1">
          <mxGeometry x="7.647058823529412" y="96.51315789473685" width="31.352941176470587" height="31.352941176470587" as="geometry" />
        </mxCell>
        <mxCell id="VEnAIz456IoGPyVfWT1b-40" value="" style="rounded=1;whiteSpace=wrap;html=1;" parent="Vip5gLb5V1CLxU_kUaMi-1" vertex="1">
          <mxGeometry y="352.35526315789474" width="359.4117647058824" height="144.47368421052633" as="geometry" />
        </mxCell>
        <mxCell id="VEnAIz456IoGPyVfWT1b-41" value="" style="rounded=1;whiteSpace=wrap;html=1;fillColor=#f5f5f5;strokeColor=#666666;fontColor=#333333;" parent="Vip5gLb5V1CLxU_kUaMi-1" vertex="1">
          <mxGeometry x="76.47058823529412" y="313.02631578947376" width="198.8235294117647" height="296.97368421052636" as="geometry" />
        </mxCell>
        <mxCell id="VEnAIz456IoGPyVfWT1b-43" value="" style="rounded=0;whiteSpace=wrap;html=1;rotation=90;" parent="Vip5gLb5V1CLxU_kUaMi-1" vertex="1">
          <mxGeometry x="130" y="409.3421052631579" width="91.76470588235294" height="32.10526315789474" as="geometry" />
        </mxCell>
        <mxCell id="VEnAIz456IoGPyVfWT1b-44" style="edgeStyle=orthogonalEdgeStyle;rounded=0;orthogonalLoop=1;jettySize=auto;html=1;exitX=0.5;exitY=0;exitDx=0;exitDy=0;entryX=0.5;entryY=1;entryDx=0;entryDy=0;" parent="Vip5gLb5V1CLxU_kUaMi-1" source="VEnAIz456IoGPyVfWT1b-45" target="VEnAIz456IoGPyVfWT1b-43" edge="1">
          <mxGeometry relative="1" as="geometry" />
        </mxCell>
        <mxCell id="VEnAIz456IoGPyVfWT1b-45" value="" style="rounded=0;whiteSpace=wrap;html=1;rotation=90;" parent="Vip5gLb5V1CLxU_kUaMi-1" vertex="1">
          <mxGeometry x="68.82352941176471" y="409.3421052631579" width="91.76470588235294" height="32.10526315789474" as="geometry" />
        </mxCell>
        <mxCell id="VEnAIz456IoGPyVfWT1b-47" value="" style="rounded=0;whiteSpace=wrap;html=1;rotation=90;" parent="Vip5gLb5V1CLxU_kUaMi-1" vertex="1">
          <mxGeometry x="191.1764705882353" y="409.3421052631579" width="91.76470588235294" height="32.10526315789474" as="geometry" />
        </mxCell>
        <mxCell id="VEnAIz456IoGPyVfWT1b-42" style="edgeStyle=orthogonalEdgeStyle;rounded=0;orthogonalLoop=1;jettySize=auto;html=1;exitX=0.5;exitY=0;exitDx=0;exitDy=0;entryX=0.5;entryY=1;entryDx=0;entryDy=0;" parent="Vip5gLb5V1CLxU_kUaMi-1" source="VEnAIz456IoGPyVfWT1b-43" target="VEnAIz456IoGPyVfWT1b-47" edge="1">
          <mxGeometry relative="1" as="geometry" />
        </mxCell>
        <mxCell id="VEnAIz456IoGPyVfWT1b-48" value="" style="rounded=0;whiteSpace=wrap;html=1;rotation=90;" parent="Vip5gLb5V1CLxU_kUaMi-1" vertex="1">
          <mxGeometry x="130" y="517.6973684210527" width="91.76470588235294" height="32.10526315789474" as="geometry" />
        </mxCell>
        <mxCell id="VEnAIz456IoGPyVfWT1b-49" value="" style="ellipse;whiteSpace=wrap;html=1;aspect=fixed;" parent="Vip5gLb5V1CLxU_kUaMi-1" vertex="1">
          <mxGeometry x="104.76470588235294" y="381.6447368421053" width="20.647058823529413" height="20.647058823529413" as="geometry" />
        </mxCell>
        <mxCell id="VEnAIz456IoGPyVfWT1b-50" value="" style="ellipse;whiteSpace=wrap;html=1;aspect=fixed;" parent="Vip5gLb5V1CLxU_kUaMi-1" vertex="1">
          <mxGeometry x="104.76470588235294" y="406.13157894736844" width="20.647058823529413" height="20.647058823529413" as="geometry" />
        </mxCell>
        <mxCell id="VEnAIz456IoGPyVfWT1b-51" value="" style="ellipse;whiteSpace=wrap;html=1;aspect=fixed;" parent="Vip5gLb5V1CLxU_kUaMi-1" vertex="1">
          <mxGeometry x="104.38235294117648" y="447.47368421052636" width="20.647058823529413" height="20.647058823529413" as="geometry" />
        </mxCell>
        <mxCell id="VEnAIz456IoGPyVfWT1b-53" value="" style="ellipse;whiteSpace=wrap;html=1;aspect=fixed;" parent="Vip5gLb5V1CLxU_kUaMi-1" vertex="1">
          <mxGeometry x="165.55882352941177" y="381.6447368421053" width="20.647058823529413" height="20.647058823529413" as="geometry" />
        </mxCell>
        <mxCell id="VEnAIz456IoGPyVfWT1b-55" value="" style="ellipse;whiteSpace=wrap;html=1;aspect=fixed;" parent="Vip5gLb5V1CLxU_kUaMi-1" vertex="1">
          <mxGeometry x="165.55882352941177" y="406.13157894736844" width="20.647058823529413" height="20.647058823529413" as="geometry" />
        </mxCell>
        <mxCell id="VEnAIz456IoGPyVfWT1b-57" value="" style="ellipse;whiteSpace=wrap;html=1;aspect=fixed;" parent="Vip5gLb5V1CLxU_kUaMi-1" vertex="1">
          <mxGeometry x="165.55882352941177" y="447.47368421052636" width="20.647058823529413" height="20.647058823529413" as="geometry" />
        </mxCell>
        <mxCell id="VEnAIz456IoGPyVfWT1b-58" style="edgeStyle=orthogonalEdgeStyle;rounded=0;orthogonalLoop=1;jettySize=auto;html=1;exitX=0;exitY=0.5;exitDx=0;exitDy=0;entryX=0;entryY=0.5;entryDx=0;entryDy=0;dashed=1;dashPattern=1 1;" parent="Vip5gLb5V1CLxU_kUaMi-1" source="VEnAIz456IoGPyVfWT1b-59" target="VEnAIz456IoGPyVfWT1b-53" edge="1">
          <mxGeometry relative="1" as="geometry">
            <Array as="points">
              <mxPoint x="146" y="500" />
              <mxPoint x="146" y="392" />
            </Array>
          </mxGeometry>
        </mxCell>
        <mxCell id="VEnAIz456IoGPyVfWT1b-59" value="" style="ellipse;whiteSpace=wrap;html=1;aspect=fixed;" parent="Vip5gLb5V1CLxU_kUaMi-1" vertex="1">
          <mxGeometry x="165.55882352941177" y="490" width="20.647058823529413" height="20.647058823529413" as="geometry" />
        </mxCell>
        <mxCell id="VEnAIz456IoGPyVfWT1b-52" style="edgeStyle=orthogonalEdgeStyle;rounded=0;orthogonalLoop=1;jettySize=auto;html=1;exitX=1;exitY=0.5;exitDx=0;exitDy=0;entryX=1;entryY=0.5;entryDx=0;entryDy=0;dashed=1;dashPattern=1 1;" parent="Vip5gLb5V1CLxU_kUaMi-1" source="VEnAIz456IoGPyVfWT1b-53" target="VEnAIz456IoGPyVfWT1b-59" edge="1">
          <mxGeometry relative="1" as="geometry" />
        </mxCell>
        <mxCell id="VEnAIz456IoGPyVfWT1b-60" style="edgeStyle=orthogonalEdgeStyle;rounded=0;orthogonalLoop=1;jettySize=auto;html=1;exitX=0;exitY=0.5;exitDx=0;exitDy=0;entryX=0;entryY=0.5;entryDx=0;entryDy=0;dashed=1;dashPattern=1 1;" parent="Vip5gLb5V1CLxU_kUaMi-1" source="VEnAIz456IoGPyVfWT1b-61" target="VEnAIz456IoGPyVfWT1b-55" edge="1">
          <mxGeometry relative="1" as="geometry">
            <Array as="points">
              <mxPoint x="145" y="525" />
              <mxPoint x="145" y="417" />
            </Array>
          </mxGeometry>
        </mxCell>
        <mxCell id="VEnAIz456IoGPyVfWT1b-61" value="" style="ellipse;whiteSpace=wrap;html=1;aspect=fixed;" parent="Vip5gLb5V1CLxU_kUaMi-1" vertex="1">
          <mxGeometry x="165.55882352941177" y="514.4868421052632" width="20.647058823529413" height="20.647058823529413" as="geometry" />
        </mxCell>
        <mxCell id="VEnAIz456IoGPyVfWT1b-54" style="edgeStyle=orthogonalEdgeStyle;rounded=0;orthogonalLoop=1;jettySize=auto;html=1;exitX=1;exitY=0.5;exitDx=0;exitDy=0;entryX=1;entryY=0.5;entryDx=0;entryDy=0;dashed=1;dashPattern=1 1;" parent="Vip5gLb5V1CLxU_kUaMi-1" source="VEnAIz456IoGPyVfWT1b-55" target="VEnAIz456IoGPyVfWT1b-61" edge="1">
          <mxGeometry relative="1" as="geometry">
            <Array as="points">
              <mxPoint x="206.47058823529412" y="417.3684210526316" />
              <mxPoint x="206.47058823529412" y="525.7236842105264" />
            </Array>
          </mxGeometry>
        </mxCell>
        <mxCell id="Vip5gLb5V1CLxU_kUaMi-2" style="edgeStyle=orthogonalEdgeStyle;rounded=0;orthogonalLoop=1;jettySize=auto;html=1;exitX=0;exitY=0.5;exitDx=0;exitDy=0;entryX=0;entryY=0.5;entryDx=0;entryDy=0;fontSize=10;dashed=1;dashPattern=1 1;" parent="Vip5gLb5V1CLxU_kUaMi-1" source="VEnAIz456IoGPyVfWT1b-63" target="VEnAIz456IoGPyVfWT1b-57" edge="1">
          <mxGeometry relative="1" as="geometry">
            <Array as="points">
              <mxPoint x="135" y="566" />
              <mxPoint x="135" y="458" />
            </Array>
          </mxGeometry>
        </mxCell>
        <mxCell id="VEnAIz456IoGPyVfWT1b-63" value="" style="ellipse;whiteSpace=wrap;html=1;aspect=fixed;" parent="Vip5gLb5V1CLxU_kUaMi-1" vertex="1">
          <mxGeometry x="165.55882352941177" y="555.8289473684212" width="20.647058823529413" height="20.647058823529413" as="geometry" />
        </mxCell>
        <mxCell id="VEnAIz456IoGPyVfWT1b-56" style="edgeStyle=orthogonalEdgeStyle;rounded=0;orthogonalLoop=1;jettySize=auto;html=1;exitX=1;exitY=0.5;exitDx=0;exitDy=0;entryX=1;entryY=0.5;entryDx=0;entryDy=0;dashed=1;dashPattern=1 1;" parent="Vip5gLb5V1CLxU_kUaMi-1" source="VEnAIz456IoGPyVfWT1b-57" target="VEnAIz456IoGPyVfWT1b-63" edge="1">
          <mxGeometry relative="1" as="geometry">
            <Array as="points">
              <mxPoint x="214.11764705882354" y="460.71052631578954" />
              <mxPoint x="214.11764705882354" y="569.0657894736843" />
            </Array>
          </mxGeometry>
        </mxCell>
        <mxCell id="VEnAIz456IoGPyVfWT1b-64" value="" style="ellipse;whiteSpace=wrap;html=1;aspect=fixed;" parent="Vip5gLb5V1CLxU_kUaMi-1" vertex="1">
          <mxGeometry x="226.73529411764707" y="381.6447368421053" width="20.647058823529413" height="20.647058823529413" as="geometry" />
        </mxCell>
        <mxCell id="VEnAIz456IoGPyVfWT1b-65" value="" style="ellipse;whiteSpace=wrap;html=1;aspect=fixed;" parent="Vip5gLb5V1CLxU_kUaMi-1" vertex="1">
          <mxGeometry x="226.73529411764707" y="406.13157894736844" width="20.647058823529413" height="20.647058823529413" as="geometry" />
        </mxCell>
        <mxCell id="VEnAIz456IoGPyVfWT1b-66" value="" style="ellipse;whiteSpace=wrap;html=1;aspect=fixed;" parent="Vip5gLb5V1CLxU_kUaMi-1" vertex="1">
          <mxGeometry x="226.73529411764707" y="447.47368421052636" width="20.647058823529413" height="20.647058823529413" as="geometry" />
        </mxCell>
        <mxCell id="VEnAIz456IoGPyVfWT1b-67" value="Context&lt;br style=&quot;font-size: 10px;&quot;&gt;Units" style="text;html=1;strokeColor=none;fillColor=none;align=center;verticalAlign=middle;whiteSpace=wrap;rounded=0;fontSize=10;" parent="Vip5gLb5V1CLxU_kUaMi-1" vertex="1">
          <mxGeometry x="160.58823529411765" y="585.921052631579" width="30.58823529411765" height="16.05263157894737" as="geometry" />
        </mxCell>
        <mxCell id="VEnAIz456IoGPyVfWT1b-68" value="Hidden&lt;br style=&quot;font-size: 10px;&quot;&gt;Layer" style="text;html=1;strokeColor=none;fillColor=none;align=center;verticalAlign=middle;whiteSpace=wrap;rounded=0;fontSize=10;" parent="Vip5gLb5V1CLxU_kUaMi-1" vertex="1">
          <mxGeometry x="160.58823529411765" y="357.171052631579" width="30.58823529411765" height="16.05263157894737" as="geometry" />
        </mxCell>
        <mxCell id="VEnAIz456IoGPyVfWT1b-69" value="Input&lt;br style=&quot;font-size: 10px;&quot;&gt;Layer" style="text;html=1;strokeColor=none;fillColor=none;align=center;verticalAlign=middle;whiteSpace=wrap;rounded=0;fontSize=10;" parent="Vip5gLb5V1CLxU_kUaMi-1" vertex="1">
          <mxGeometry x="99.41176470588235" y="357.171052631579" width="30.58823529411765" height="16.05263157894737" as="geometry" />
        </mxCell>
        <mxCell id="VEnAIz456IoGPyVfWT1b-70" value="Output&lt;br style=&quot;font-size: 10px;&quot;&gt;Layer" style="text;html=1;strokeColor=none;fillColor=none;align=center;verticalAlign=middle;whiteSpace=wrap;rounded=0;fontSize=10;" parent="Vip5gLb5V1CLxU_kUaMi-1" vertex="1">
          <mxGeometry x="221.76470588235296" y="357.171052631579" width="30.58823529411765" height="16.05263157894737" as="geometry" />
        </mxCell>
        <mxCell id="VEnAIz456IoGPyVfWT1b-71" value="Elman RNN (Activation: Tanh)" style="text;html=1;strokeColor=none;fillColor=none;align=center;verticalAlign=middle;whiteSpace=wrap;rounded=0;fontSize=10;" parent="Vip5gLb5V1CLxU_kUaMi-1" vertex="1">
          <mxGeometry x="130" y="321.0526315789474" width="91.76470588235294" height="16.05263157894737" as="geometry" />
        </mxCell>
        <mxCell id="wHTYpB7IPGeu_RWElvGa-3" style="edgeStyle=orthogonalEdgeStyle;rounded=0;orthogonalLoop=1;jettySize=auto;html=1;exitX=0.5;exitY=0;exitDx=0;exitDy=0;entryX=0;entryY=0.5;entryDx=0;entryDy=0;" edge="1" parent="Vip5gLb5V1CLxU_kUaMi-1" source="VEnAIz456IoGPyVfWT1b-72" target="wHTYpB7IPGeu_RWElvGa-1">
          <mxGeometry relative="1" as="geometry" />
        </mxCell>
        <mxCell id="VEnAIz456IoGPyVfWT1b-72" value="" style="rounded=0;whiteSpace=wrap;html=1;rotation=90;fillColor=#dae8fc;strokeColor=#6c8ebf;" parent="Vip5gLb5V1CLxU_kUaMi-1" vertex="1">
          <mxGeometry x="282.94117647058823" y="410.1447368421053" width="91.76470588235294" height="30.5" as="geometry" />
        </mxCell>
        <mxCell id="VEnAIz456IoGPyVfWT1b-46" style="edgeStyle=orthogonalEdgeStyle;rounded=0;orthogonalLoop=1;jettySize=auto;html=1;exitX=0.5;exitY=0;exitDx=0;exitDy=0;entryX=0.5;entryY=1;entryDx=0;entryDy=0;" parent="Vip5gLb5V1CLxU_kUaMi-1" source="VEnAIz456IoGPyVfWT1b-47" target="VEnAIz456IoGPyVfWT1b-72" edge="1">
          <mxGeometry relative="1" as="geometry" />
        </mxCell>
        <mxCell id="VEnAIz456IoGPyVfWT1b-98" style="edgeStyle=orthogonalEdgeStyle;rounded=0;orthogonalLoop=1;jettySize=auto;html=1;exitX=1;exitY=0.5;exitDx=0;exitDy=0;entryX=0.5;entryY=1;entryDx=0;entryDy=0;" parent="Vip5gLb5V1CLxU_kUaMi-1" source="VEnAIz456IoGPyVfWT1b-74" target="VEnAIz456IoGPyVfWT1b-45" edge="1">
          <mxGeometry relative="1" as="geometry" />
        </mxCell>
        <mxCell id="VEnAIz456IoGPyVfWT1b-99" value="flatten" style="edgeLabel;html=1;align=center;verticalAlign=middle;resizable=0;points=[];fontSize=10;" parent="VEnAIz456IoGPyVfWT1b-98" vertex="1" connectable="0">
          <mxGeometry x="-0.3788" relative="1" as="geometry">
            <mxPoint y="-8" as="offset" />
          </mxGeometry>
        </mxCell>
        <mxCell id="VEnAIz456IoGPyVfWT1b-74" value="14x14" style="whiteSpace=wrap;html=1;aspect=fixed;fontSize=10;" parent="Vip5gLb5V1CLxU_kUaMi-1" vertex="1">
          <mxGeometry x="7.647058823529412" y="409.5394736842106" width="31.352941176470587" height="31.352941176470587" as="geometry" />
        </mxCell>
        <mxCell id="VEnAIz456IoGPyVfWT1b-77" value="&lt;br&gt;&lt;br&gt;&lt;br&gt;4&lt;br&gt;" style="rounded=0;whiteSpace=wrap;html=1;rotation=90;fillColor=#dae8fc;strokeColor=#6c8ebf;" parent="Vip5gLb5V1CLxU_kUaMi-1" vertex="1">
          <mxGeometry x="374.70588235294116" y="248.81578947368425" width="91.76470588235294" height="30.90131578947369" as="geometry" />
        </mxCell>
        <mxCell id="VEnAIz456IoGPyVfWT1b-79" style="edgeStyle=orthogonalEdgeStyle;rounded=0;orthogonalLoop=1;jettySize=auto;html=1;exitX=0.5;exitY=0;exitDx=0;exitDy=0;entryX=0.5;entryY=1;entryDx=0;entryDy=0;" parent="Vip5gLb5V1CLxU_kUaMi-1" source="VEnAIz456IoGPyVfWT1b-33" target="VEnAIz456IoGPyVfWT1b-77" edge="1">
          <mxGeometry relative="1" as="geometry" />
        </mxCell>
        <mxCell id="VEnAIz456IoGPyVfWT1b-78" style="edgeStyle=orthogonalEdgeStyle;rounded=0;orthogonalLoop=1;jettySize=auto;html=1;exitX=0.5;exitY=0;exitDx=0;exitDy=0;entryX=0.5;entryY=1;entryDx=0;entryDy=0;" parent="Vip5gLb5V1CLxU_kUaMi-1" source="VEnAIz456IoGPyVfWT1b-72" target="VEnAIz456IoGPyVfWT1b-77" edge="1">
          <mxGeometry relative="1" as="geometry" />
        </mxCell>
        <mxCell id="VEnAIz456IoGPyVfWT1b-106" value="flatten&lt;br style=&quot;font-size: 10px;&quot;&gt;concatenate" style="edgeLabel;html=1;align=center;verticalAlign=middle;resizable=0;points=[];fontSize=10;" parent="VEnAIz456IoGPyVfWT1b-78" vertex="1" connectable="0">
          <mxGeometry x="0.7216" y="3" relative="1" as="geometry">
            <mxPoint x="-11" as="offset" />
          </mxGeometry>
        </mxCell>
        <mxCell id="VEnAIz456IoGPyVfWT1b-80" value="2x1" style="rounded=0;whiteSpace=wrap;html=1;" parent="Vip5gLb5V1CLxU_kUaMi-1" vertex="1">
          <mxGeometry x="466.47058823529414" y="246.80921052631584" width="53.529411764705884" height="35.31578947368421" as="geometry" />
        </mxCell>
        <mxCell id="VEnAIz456IoGPyVfWT1b-82" style="edgeStyle=orthogonalEdgeStyle;rounded=0;orthogonalLoop=1;jettySize=auto;html=1;exitX=0.5;exitY=0;exitDx=0;exitDy=0;" parent="Vip5gLb5V1CLxU_kUaMi-1" source="VEnAIz456IoGPyVfWT1b-77" target="VEnAIz456IoGPyVfWT1b-80" edge="1">
          <mxGeometry relative="1" as="geometry" />
        </mxCell>
        <mxCell id="VEnAIz456IoGPyVfWT1b-83" value="Out" style="text;html=1;strokeColor=none;fillColor=none;align=center;verticalAlign=middle;whiteSpace=wrap;rounded=0;fontSize=10;" parent="Vip5gLb5V1CLxU_kUaMi-1" vertex="1">
          <mxGeometry x="477.9411764705883" y="228.75" width="30.58823529411765" height="16.05263157894737" as="geometry" />
        </mxCell>
        <mxCell id="VEnAIz456IoGPyVfWT1b-84" value="Linear Layer" style="text;html=1;strokeColor=none;fillColor=none;align=center;verticalAlign=middle;whiteSpace=wrap;rounded=0;fontSize=10;" parent="Vip5gLb5V1CLxU_kUaMi-1" vertex="1">
          <mxGeometry x="390" y="196.6447368421053" width="61.1764705882353" height="16.05263157894737" as="geometry" />
        </mxCell>
        <mxCell id="VEnAIz456IoGPyVfWT1b-85" value="" style="ellipse;whiteSpace=wrap;html=1;aspect=fixed;" parent="Vip5gLb5V1CLxU_kUaMi-1" vertex="1">
          <mxGeometry x="318.5" y="406.13157894736844" width="20.647058823529413" height="20.647058823529413" as="geometry" />
        </mxCell>
        <mxCell id="VEnAIz456IoGPyVfWT1b-86" value="" style="ellipse;whiteSpace=wrap;html=1;aspect=fixed;" parent="Vip5gLb5V1CLxU_kUaMi-1" vertex="1">
          <mxGeometry x="318.5" y="448.47368421052636" width="20.647058823529413" height="20.647058823529413" as="geometry" />
        </mxCell>
        <mxCell id="VEnAIz456IoGPyVfWT1b-87" value="" style="ellipse;whiteSpace=wrap;html=1;aspect=fixed;" parent="Vip5gLb5V1CLxU_kUaMi-1" vertex="1">
          <mxGeometry x="410.2647058823529" y="244.8026315789474" width="20.647058823529413" height="20.647058823529413" as="geometry" />
        </mxCell>
        <mxCell id="VEnAIz456IoGPyVfWT1b-88" value="" style="ellipse;whiteSpace=wrap;html=1;aspect=fixed;" parent="Vip5gLb5V1CLxU_kUaMi-1" vertex="1">
          <mxGeometry x="410.2647058823529" y="287.14473684210526" width="20.647058823529413" height="20.647058823529413" as="geometry" />
        </mxCell>
        <mxCell id="VEnAIz456IoGPyVfWT1b-89" value="" style="ellipse;whiteSpace=wrap;html=1;aspect=fixed;" parent="Vip5gLb5V1CLxU_kUaMi-1" vertex="1">
          <mxGeometry x="318.5" y="93.10526315789475" width="20.647058823529413" height="20.647058823529413" as="geometry" />
        </mxCell>
        <mxCell id="VEnAIz456IoGPyVfWT1b-90" value="" style="ellipse;whiteSpace=wrap;html=1;aspect=fixed;" parent="Vip5gLb5V1CLxU_kUaMi-1" vertex="1">
          <mxGeometry x="318.5" y="135.44736842105263" width="20.647058823529413" height="20.647058823529413" as="geometry" />
        </mxCell>
        <mxCell id="VEnAIz456IoGPyVfWT1b-91" value="" style="ellipse;whiteSpace=wrap;html=1;aspect=fixed;" parent="Vip5gLb5V1CLxU_kUaMi-1" vertex="1">
          <mxGeometry x="318.5" y="68.61842105263159" width="20.647058823529413" height="20.647058823529413" as="geometry" />
        </mxCell>
        <mxCell id="VEnAIz456IoGPyVfWT1b-92" value="" style="ellipse;whiteSpace=wrap;html=1;aspect=fixed;" parent="Vip5gLb5V1CLxU_kUaMi-1" vertex="1">
          <mxGeometry x="410.2647058823529" y="220.31578947368425" width="20.647058823529413" height="20.647058823529413" as="geometry" />
        </mxCell>
        <mxCell id="VEnAIz456IoGPyVfWT1b-93" value="" style="ellipse;whiteSpace=wrap;html=1;aspect=fixed;" parent="Vip5gLb5V1CLxU_kUaMi-1" vertex="1">
          <mxGeometry x="318.5" y="381.6447368421053" width="20.647058823529413" height="20.647058823529413" as="geometry" />
        </mxCell>
        <mxCell id="VEnAIz456IoGPyVfWT1b-100" value="In, Out: 4, 2" style="text;html=1;strokeColor=none;fillColor=none;align=center;verticalAlign=middle;whiteSpace=wrap;rounded=0;fontSize=10;" parent="Vip5gLb5V1CLxU_kUaMi-1" vertex="1">
          <mxGeometry x="393.82" y="313.03" width="56.18" height="16.05" as="geometry" />
        </mxCell>
        <mxCell id="VEnAIz456IoGPyVfWT1b-101" value="In, Out: 50, 10" style="text;html=1;strokeColor=none;fillColor=none;align=center;verticalAlign=middle;whiteSpace=wrap;rounded=0;fontSize=10;" parent="Vip5gLb5V1CLxU_kUaMi-1" vertex="1">
          <mxGeometry x="292.2647058823529" y="158.92105263157896" width="66.14705882352942" height="16.05263157894737" as="geometry" />
        </mxCell>
        <mxCell id="VEnAIz456IoGPyVfWT1b-102" value="In, Out: 50, 10" style="text;html=1;strokeColor=none;fillColor=none;align=center;verticalAlign=middle;whiteSpace=wrap;rounded=0;fontSize=10;" parent="Vip5gLb5V1CLxU_kUaMi-1" vertex="1">
          <mxGeometry x="291.2647058823529" y="471.94736842105266" width="66.14705882352942" height="16.05263157894737" as="geometry" />
        </mxCell>
        <mxCell id="wHTYpB7IPGeu_RWElvGa-1" value="10x1" style="rounded=0;whiteSpace=wrap;html=1;" vertex="1" parent="Vip5gLb5V1CLxU_kUaMi-1">
          <mxGeometry x="466.47" y="404.65999999999997" width="53.53" height="39.86" as="geometry" />
        </mxCell>
        <mxCell id="wHTYpB7IPGeu_RWElvGa-2" value="&lt;font style=&quot;font-size: 12px&quot;&gt;10x1&lt;/font&gt;" style="rounded=0;whiteSpace=wrap;html=1;" vertex="1" parent="Vip5gLb5V1CLxU_kUaMi-1">
          <mxGeometry x="466.47" y="91.64" width="53.53" height="39.86" as="geometry" />
        </mxCell>
        <mxCell id="wHTYpB7IPGeu_RWElvGa-5" value="&lt;font style=&quot;font-size: 10px&quot;&gt;Out1&lt;/font&gt;" style="text;html=1;align=center;verticalAlign=middle;resizable=0;points=[];autosize=1;strokeColor=none;" vertex="1" parent="Vip5gLb5V1CLxU_kUaMi-1">
          <mxGeometry x="473.24" y="68.94" width="40" height="20" as="geometry" />
        </mxCell>
        <mxCell id="wHTYpB7IPGeu_RWElvGa-6" value="&lt;font style=&quot;font-size: 10px&quot;&gt;Out2&lt;/font&gt;" style="text;html=1;align=center;verticalAlign=middle;resizable=0;points=[];autosize=1;strokeColor=none;" vertex="1" parent="Vip5gLb5V1CLxU_kUaMi-1">
          <mxGeometry x="473.24" y="387" width="40" height="20" as="geometry" />
        </mxCell>
        <mxCell id="wHTYpB7IPGeu_RWElvGa-8" value="&lt;font style=&quot;font-size: 10px&quot;&gt;Auxiliary Loss&lt;br&gt;weight: 0.8&lt;/font&gt;" style="rounded=0;whiteSpace=wrap;html=1;fillColor=#ffe6cc;strokeColor=#d79b00;" vertex="1" parent="Vip5gLb5V1CLxU_kUaMi-1">
          <mxGeometry x="451.18" y="448.47" width="85" height="35.51" as="geometry" />
        </mxCell>
        <mxCell id="wHTYpB7IPGeu_RWElvGa-9" value="&lt;font style=&quot;font-size: 10px&quot;&gt;Auxiliary Loss&lt;br&gt;weight: 0.8&lt;/font&gt;" style="rounded=0;whiteSpace=wrap;html=1;fillColor=#ffe6cc;strokeColor=#d79b00;" vertex="1" parent="Vip5gLb5V1CLxU_kUaMi-1">
          <mxGeometry x="450.0000000000001" y="135.45000000000005" width="85" height="35.51" as="geometry" />
        </mxCell>
      </root>
    </mxGraphModel>
  </diagram>
</mxfile>
